# xmcd
#
# Track frame offsets: 
#        150
#        16514
#        31706
#        48260
#        67291
#        82532
#        99551
#        119313
#        135401
#        152597
#        169365
#        185787
#
# Disc length: 2723 seconds
#
# Revision: 0
# Processed by: cddbd v1.5.2PL0 Copyright (c) Steve Scherf et al.
# Submitted via: ExactAudioCopy v0.95b3
#
DISCID=8d0aa10c
DTITLE=Luan Parle - Free
DYEAR=2006
DGENRE=Country
TTITLE0=Corporate Culture
TTITLE1=Unspoken
TTITLE2=Failed Romances
TTITLE3=Is It Over?
TTITLE4=Make It On My Own
TTITLE5=Looking Through The Back Door
TTITLE6=Song For You
TTITLE7=Free
TTITLE8=Baby Where You Sleeping Tonight?
TTITLE9=Black Ice
TTITLE10=Rose Without Thorns
TTITLE11=Ghost
EXTD=
EXTT0=
EXTT1=
EXTT2=
EXTT3=
EXTT4=
EXTT5=
EXTT6=
EXTT7=
EXTT8=
EXTT9=
EXTT10=
EXTT11=
PLAYORDER=
